<svg height="510pt" viewBox="0 -4 510.61358 510" width="510pt" xmlns="http://www.w3.org/2000/svg"><path d="m16.074219 251.617188c-4.539063-.019532-8.859375-1.949219-11.90625-5.316407-3.042969-3.367187-4.53125-7.859375-4.0937502-12.378906 7.5000002-86.1875 71.1328122-157.007813 156.0312502-173.648437l-37.34375-37.34375 22.65625-22.621094 88.449219 88.671875h-38.558594c-83.613282.714843-152.8125 65.207031-159.410156 148.558593-.851563 8.074219-7.707032 14.175782-15.824219 14.078126zm0 0" fill="#48c8ef"/><path d="m369.195312 502.929688-88.449218-88.671876h38.5625c83.609375-.71875 152.808594-65.207031 159.40625-148.558593.851562-8.074219 7.707031-14.175781 15.824218-14.082031 4.539063.019531 8.859376 1.949218 11.90625 5.316406 3.042969 3.367187 4.53125 7.863281 4.09375 12.382812-7.488281 86.15625-71.074218 156.96875-155.9375 173.644532l37.265626 37.347656zm0 0" fill="#48c8ef"/><g fill="#77959e"><path d="m127.308594 171.617188v32h80v32h-80v32h80v32h-80v32h112v-160zm0 0"/><path d="m319.308594 331.617188h-48v-160h48c44.179687 0 80 35.820312 80 80 0 44.183593-35.820313 80-80 80zm-16-32h16c26.507812 0 48-21.488282 48-48 0-26.507813-21.492188-48-48-48h-16zm0 0"/></g></svg>