<svg height="512pt" viewBox="-5 0 512 512" width="512pt" xmlns="http://www.w3.org/2000/svg"><path d="m346.90625 96h-32v-48c0-8.835938-7.164062-16-16-16h-96c-8.835938 0-16 7.164062-16 16v48h-32v-48c0-26.507812 21.488281-48 48-48h96c26.507812 0 48 21.492188 48 48zm0 0" fill="#77959e"/><path d="m469.816406 512h-437.824218c-9.304688-.003906-18.144532-4.054688-24.222657-11.097656-6.078125-7.046875-8.789062-16.386719-7.425781-25.589844l58.5625-395.3125h384l58.558594 395.3125c1.363281 9.203125-1.347656 18.542969-7.425782 25.589844-6.074218 7.042968-14.917968 11.09375-24.222656 11.097656zm0 0" fill="#e76e54"/><path d="m163.320312 411.710938v-224l192 112zm0 0" fill="#fff"/></svg>