<svg height="512pt" viewBox="0 -64 512 512" width="512pt" xmlns="http://www.w3.org/2000/svg"><path d="m64 0h384c35.347656 0 64 28.652344 64 64v256c0 35.347656-28.652344 64-64 64h-384c-35.347656 0-64-28.652344-64-64v-256c0-35.347656 28.652344-64 64-64zm0 0" fill="#77959e"/><path d="m64 32h384c17.671875 0 32 14.328125 32 32v256c0 17.671875-14.328125 32-32 32h-384c-17.671875 0-32-14.328125-32-32v-256c0-17.671875 14.328125-32 32-32zm0 0" fill="#48c8ef"/><g fill="#fff"><path d="m96 160h-32v-96h96v32h-64zm0 0"/><path d="m448 320h-96v-32h64v-64h32zm0 0"/><path d="m192 64h32v32h-32zm0 0"/><path d="m64 192h32v32h-32zm0 0"/><path d="m416 160h32v32h-32zm0 0"/><path d="m288 288h32v32h-32zm0 0"/></g></svg>