<svg height="512pt" viewBox="-6 0 511 512" width="512pt" xmlns="http://www.w3.org/2000/svg"><path d="m32.5 16h352c17.671875 0 32 14.328125 32 32v432c0 17.671875-14.328125 32-32 32h-352c-17.671875 0-32-14.328125-32-32v-432c0-17.671875 14.328125-32 32-32zm0 0" fill="#ecce93"/><path d="m32.5 374.625v-326.625h352v432h-246.625zm0 0" fill="#e4edfb"/><path d="m137.875 374.625v105.375l-105.375-105.375zm0 0" fill="#e76e54"/><path d="m128.5 64v-64h160v64c0 17.671875-14.328125 32-32 32h-96c-17.671875 0-32-14.328125-32-32zm0 0" fill="#e76e54"/><path d="m385.476562 36.511719-193.535156 193.519531-30.160156 120.6875 120.671875-30.160156 193.519531-193.535156zm0 0" fill="#48c8ef"/><path d="m191.941406 230.03125-30.160156 120.6875 120.671875-30.160156zm0 0" fill="#ecce93"/><path d="m443.988281 159.023438-90.511719-90.511719 45.246094-45.246094c12.496094-12.492187 32.753906-12.492187 45.25 0l45.261719 45.246094c12.503906 12.5 12.503906 32.765625 0 45.265625zm0 0" fill="#e4edfb"/></svg>