<svg height="512pt" viewBox="-48 0 512 512" width="512pt" xmlns="http://www.w3.org/2000/svg"><path d="m32 16h352c17.671875 0 32 14.328125 32 32v432c0 17.671875-14.328125 32-32 32h-352c-17.671875 0-32-14.328125-32-32v-432c0-17.671875 14.328125-32 32-32zm0 0" fill="#77959e"/><path d="m32 374.625v-294.625c0-17.671875 14.328125-32 32-32h288c17.671875 0 32 14.328125 32 32v368c0 17.671875-14.328125 32-32 32h-214.625zm0 0" fill="#e4edfb"/><path d="m137.375 406.625v73.375l-105.375-105.375h73.375c17.675781 0 32 14.324219 32 32zm0 0" fill="#48c8ef"/><path d="m32 448h32v32h-32zm0 0" fill="#fff"/><path d="m128 64v-64h160v64c0 17.671875-14.328125 32-32 32h-96c-17.671875 0-32-14.328125-32-32zm0 0" fill="#48c8ef"/><path d="m175.28125 293.902344-47.28125-47.277344c-6.246094-6.25-6.246094-16.378906 0-22.625s16.375-6.246094 22.625 0l26.09375 26.097656 104.707031-91.601562c6.648438-5.820313 16.753907-5.144532 22.574219 1.503906 5.816406 6.648438 5.144531 16.757812-1.503906 22.574219zm0 0" fill="#6fbb2e"/></svg>