<svg height="512pt" viewBox="-10 0 512 512.81122" width="512pt" xmlns="http://www.w3.org/2000/svg"><path d="m188.394531 512.804688c-42.859375-.21875-80.402343-28.769532-92.066406-70.015626l-4.414063-15.613281 185.3125-49.601562 3.980469 15.726562c7.632813 28.695313 1.421875 59.304688-16.789062 82.753907-18.214844 23.449218-46.335938 37.042968-76.023438 36.75zm0 0" fill="#ffcb5a"/><path d="m48.808594 398.085938-41.359375-154.558594c-18.535157-66.539063.09375-137.902344 48.789062-186.886719 48.695313-48.984375 119.949219-68.039063 186.59375-49.902344 66.644531 18.140625 118.410157 70.679688 135.5625 137.589844l41.375 154.574219zm0 0" fill="#ffcb5a"/><path d="m15.367188 480.804688-10.160157-37.917969c-9.15625-34.15625 11.121094-69.261719 45.28125-78.398438l351.054688-93.921875c34.15625-9.15625 69.265625 11.121094 78.402343 45.28125l10.144532 37.917969zm0 0" fill="#fba61f"/><g fill="#77959e"><path d="m332.394531 448.804688h32v32h-32zm0 0"/><path d="m396.394531 448.804688h32v32h-32zm0 0"/><path d="m460.394531 448.804688h32v32h-32zm0 0"/></g><path d="m85.992188 222.519531c-4.464844 1.234375-9.25.46875-13.109376-2.09375-3.859374-2.5625-6.421874-6.671875-7.019531-11.265625-6.699219-56.457031 24.558594-110.589844 76.800781-133.007812 4.277344-1.78125 9.117188-1.617188 13.269532.441406 4.148437 2.0625 7.199218 5.824219 8.363281 10.308594 2.042969 7.652344-1.867187 15.640625-9.167969 18.71875-39.117187 16.816406-62.539062 57.328125-57.601562 99.617187.964844 7.859375-4 15.226563-11.648438 17.28125zm0 0" fill="#fff"/></svg>