<svg height="512pt" viewBox="0 0 512 512" width="512pt" xmlns="http://www.w3.org/2000/svg"><path d="m512 256c0 141.386719-114.613281 256-256 256s-256-114.613281-256-256 114.613281-256 256-256 256 114.613281 256 256zm0 0" fill="#e4edfb"/><path d="m384 128c-6.246094-6.246094-16.375-6.246094-22.625 0l-105.375 105.375-105.375-105.375c-6.25-6.246094-16.378906-6.246094-22.625 0s-6.246094 16.375 0 22.625l105.375 105.375-105.375 105.375c-6.246094 6.25-6.246094 16.378906 0 22.625s16.375 6.246094 22.625 0l105.375-105.375 105.375 105.375c6.25 6.246094 16.378906 6.246094 22.625 0s6.246094-16.375 0-22.625l-105.375-105.375 105.375-105.375c6.246094-6.25 6.246094-16.378906 0-22.625zm0 0" fill="#e76e54"/></svg>