<svg height="512pt" viewBox="-48 0 512 512" width="512pt" xmlns="http://www.w3.org/2000/svg"><path d="m32 16h352c17.671875 0 32 14.328125 32 32v432c0 17.671875-14.328125 32-32 32h-352c-17.671875 0-32-14.328125-32-32v-432c0-17.671875 14.328125-32 32-32zm0 0" fill="#ecce93"/><path d="m32 374.625v-326.625h352v432h-246.625zm0 0" fill="#e4edfb"/><path d="m137.375 374.625v105.375l-105.375-105.375zm0 0" fill="#e76e54"/><path d="m128 64v-64h160v64c0 17.671875-14.328125 32-32 32h-96c-17.671875 0-32-14.328125-32-32zm0 0" fill="#e76e54"/><g fill="#77959e"><path d="m108 205.792969-31.199219-23.394531c-7.070312-5.300782-8.503906-15.328126-3.199219-22.398438 5.300782-7.070312 15.328126-8.5 22.398438-3.199219l7.214844 5.40625 27.824218-32.480469c5.753907-6.703124 15.855469-7.480468 22.5625-1.726562 6.710938 5.75 7.492188 15.847656 1.742188 22.558594zm0 0"/><path d="m108 333.792969-31.199219-23.394531c-7.070312-5.300782-8.503906-15.328126-3.199219-22.398438 5.300782-7.070312 15.328126-8.5 22.398438-3.199219l7.214844 5.40625 27.824218-32.480469c5.753907-6.703124 15.855469-7.480468 22.5625-1.726562 6.710938 5.75 7.492188 15.847656 1.742188 22.558594zm0 0"/><path d="m208 160h112c8.835938 0 16 7.164062 16 16s-7.164062 16-16 16h-112c-8.835938 0-16-7.164062-16-16s7.164062-16 16-16zm0 0"/><path d="m208 304h112c8.835938 0 16 7.164062 16 16s-7.164062 16-16 16h-112c-8.835938 0-16-7.164062-16-16s7.164062-16 16-16zm0 0"/></g></svg>