<svg height="512pt" viewBox="0 0 512 512" width="512pt" xmlns="http://www.w3.org/2000/svg"><path d="m432 512h-352c-44.183594 0-80-35.816406-80-80v-352c0-44.183594 35.816406-80 80-80h352c44.183594 0 80 35.816406 80 80v352c0 44.183594-35.816406 80-80 80zm0 0" fill="#77959e"/><path d="m80 32c-26.507812 0-48 21.492188-48 48v352c0 26.507812 21.492188 48 48 48h352c26.507812 0 48-21.492188 48-48v-352c0-26.507812-21.492188-48-48-48zm0 0" fill="#addb31"/><path d="m176 390.625-80-80c-6.246094-6.25-6.246094-16.378906 0-22.625s16.375-6.246094 22.625 0l57.375 57.375 217.375-217.375c6.25-6.246094 16.378906-6.246094 22.625 0s6.246094 16.375 0 22.625zm0 0" fill="#fff"/></svg>