<svg height="512pt" viewBox="0 0 512 512.24136" width="512pt" xmlns="http://www.w3.org/2000/svg"><path d="m208.128906 288h96v96h-96zm0 0" fill="#ffcb5a"/><path d="m301.070312 256h-89.886718l-54.847656-256h199.582031zm0 0" fill="#ffcb5a"/><path d="m191.28125 504.078125c-23.078125-5.652344-45.144531-14.824219-65.425781-27.199219-97.019531-57.597656-145.09375-171.769531-118.496094-281.421875l31.089844 7.535157c-4.199219 17.355468-6.320313 35.152343-6.320313 53.007812-.007812 90.605469 54.566406 172.289062 138.277344 206.964844 83.707031 34.671875 180.058594 15.503906 244.121094-48.566406 83.40625-83.386719 87.859375-217.164063 10.191406-305.917969-5.578125-6.085938-5.429688-15.46875.335938-21.375l.671874-.707031c2.964844-3.023438 7.042969-4.703126 11.277344-4.636719 4.234375.066406 8.257813 1.871093 11.125 4.992187 56.253906 63.8125 77.285156 151.335938 56.160156 233.742188-5.644531 23.105468-14.820312 45.199218-27.203124 65.503906-58.382813 98.570312-174.875 146.699219-285.804688 118.078125zm-143.875-329.597656-29.824219-11.585938c4.152344-10.601562 9.011719-20.910156 14.546875-30.863281l27.984375 15.535156c-4.839843 8.691406-9.085937 17.699219-12.707031 26.960938zm28.800781-52.066407-25.597656-19.085937c6.785156-9.097656 14.15625-17.742187 22.0625-25.886719l22.945313 22.300782c-6.949219 7.144531-13.421876 14.734374-19.378907 22.722656zm0 0" fill="#e76e54"/><path d="m256.128906 447.902344c-74.457031.050781-142.222656-42.972656-173.851562-110.378906-31.632813-67.40625-21.417969-147.023438 26.203125-204.257813 2.882812-3.488281 7.097656-5.601563 11.613281-5.820313 4.519531-.222656 8.921875 1.464844 12.128906 4.652344 5.800782 5.644532 6.359375 14.773438 1.296875 21.085938-54.46875 64.96875-48.804687 161.144531 12.914063 219.269531 61.71875 58.128906 158.0625 58.019531 219.652344-.242187 61.585937-58.261719 67.039062-154.453126 12.425781-219.300782-4.949219-6.152344-4.398438-15.058594 1.265625-20.558594l.558594-.558593c3.132812-3.105469 7.425781-4.753907 11.832031-4.539063 4.402343.214844 8.515625 2.265625 11.335937 5.65625 47.796875 57.195313 58.160156 136.894532 26.570313 204.40625-31.585938 67.511719-99.410157 110.632813-173.945313 110.585938zm0 0" fill="#dd523c"/></svg>