<svg height="512pt" viewBox="0 0 512 512" width="512pt" xmlns="http://www.w3.org/2000/svg"><path d="m32 16h352c17.671875 0 32 14.328125 32 32v432c0 17.671875-14.328125 32-32 32h-352c-17.671875 0-32-14.328125-32-32v-432c0-17.671875 14.328125-32 32-32zm0 0" fill="#77959e"/><path d="m32 374.625v-294.625c0-17.671875 14.328125-32 32-32h288c17.671875 0 32 14.328125 32 32v368c0 17.671875-14.328125 32-32 32h-214.625zm0 0" fill="#e4edfb"/><path d="m137.375 406.625v73.375l-105.375-105.375h73.375c17.675781 0 32 14.324219 32 32zm0 0" fill="#48c8ef"/><path d="m303.296875 322.976562v-96h128v96h80.703125l-144.703125 186.046876-144.722656-186.046876zm0 0" fill="#ffcb5a"/><g fill="#fba61f"><path d="m389.230469 162.976562h32v32h-32zm0 0"/><path d="m389.230469 98.976562h32v32h-32zm0 0"/><path d="m325.230469 162.976562h32v32h-32zm0 0"/><path d="m325.230469 98.976562h32v32h-32zm0 0"/></g><path d="m32 448h32v32h-32zm0 0" fill="#fff"/><path d="m128 64v-64h160v64c0 17.671875-14.328125 32-32 32h-96c-17.671875 0-32-14.328125-32-32zm0 0" fill="#48c8ef"/></svg>