<svg height="512pt" viewBox="0 0 512 512" width="512pt" xmlns="http://www.w3.org/2000/svg"><path d="m512 512h-512v-144c0-8.835938 7.164062-16 16-16s16 7.164062 16 16v112h448v-112c0-8.835938 7.164062-16 16-16s16 7.164062 16 16zm0 0" fill="#77959e"/><g fill="#addb31"><path d="m369.136719 248.238281-97.136719 97.136719v-217.375h-32v217.375l-97.136719-97.136719c-6.246093-6.246093-16.375-6.246093-22.625 0-6.246093 6.25-6.246093 16.378907 0 22.625l135.761719 135.761719 135.761719-135.761719c6.246093-6.246093 6.246093-16.375 0-22.625-6.25-6.246093-16.378907-6.246093-22.625 0zm0 0"/><path d="m240 0h32v32h-32zm0 0"/><path d="m240 64h32v32h-32zm0 0"/></g></svg>