<svg height="512pt" viewBox="0 0 512 512" width="512pt" xmlns="http://www.w3.org/2000/svg"><path d="m512 256c0 141.386719-114.613281 256-256 256s-256-114.613281-256-256 114.613281-256 256-256 256 114.613281 256 256zm0 0" fill="#77959e"/><path d="m480 256c0 123.710938-100.289062 224-224 224s-224-100.289062-224-224 100.289062-224 224-224 224 100.289062 224 224zm0 0" fill="#48c8ef"/><path d="m118.382812 393.601562 91.761719-183.472656 183.472657-91.730468-91.761719 183.472656zm0 0" fill="#ffcb5a"/><g fill="#fff"><path d="m240 64h32v32h-32zm0 0"/><path d="m240 416h32v32h-32zm0 0"/><path d="m416 240h32v32h-32zm0 0"/><path d="m64 240h32v32h-32zm0 0"/></g><path d="m118.382812 393.601562 183.472657-91.730468 91.761719-183.472656zm0 0" fill="#fba61f"/></svg>