<svg height="513pt" viewBox="-1 0 513 513.52903" width="513pt" xmlns="http://www.w3.org/2000/svg"><path d="m224.265625 513.527344-117.792969-98.160156h-106.207031v-352h448v352h-224zm0 0" fill="#48c8ef"/><path d="m161.542969 350.089844 30.160156-120.671875 229.425781-229.4101565 90.496094 90.5117185-229.390625 229.410157zm0 0" fill="#e76e54"/><path d="m191.703125 229.417969-30.160156 120.671875 120.691406-30.160156 3.117187-3.136719-90.511718-90.511719zm0 0" fill="#ecce93"/><path d="m364.550781 56.566406 56.570313-56.566406 90.503906 90.511719-56.570312 56.566406zm0 0" fill="#ecce93"/><g fill="#fff"><path d="m64.265625 127.367188h160v32h-160zm0 0"/><path d="m64.265625 191.367188h96v32h-96zm0 0"/><path d="m64.265625 255.367188h64v32h-64zm0 0"/><path d="m64.265625 319.367188h64v32h-64zm0 0"/></g></svg>