<svg height="507pt" viewBox="0 -14 507.30175 507" width="507pt" xmlns="http://www.w3.org/2000/svg"><path d="m459.3125 480.128906c-12.730469.027344-24.945312-5.023437-33.9375-14.03125l-200.144531-200.175781 67.875-67.871094 200.140625 200.144531c13.726562 13.726563 17.832031 34.371094 10.402344 52.304688-7.425782 17.933594-24.925782 29.625-44.335938 29.628906zm0 0" fill="#57565c"/><path d="m379.3125 176.128906c0 88.367188-71.636719 160-160 160-88.367188 0-160-71.632812-160-160 0-88.363281 71.632812-160 160-160 88.363281 0 160 71.636719 160 160zm0 0" fill="#e4edfb"/><g fill="#ffcb5a"><path d="m105.96875 80.851562-24-21.25c-7.769531 8.804688-14.640625 18.363282-20.511719 28.527344l27.710938 16c4.800781-8.304687 10.429687-16.101562 16.800781-23.277344zm0 0"/><path d="m151.601562 46.289062-13.890624-28.847656c-10.574219 5.089844-20.613282 11.21875-29.96875 18.304688l19.3125 25.519531c7.664062-5.796875 15.886718-10.8125 24.546874-14.976563zm0 0"/><path d="m410.59375 148.820312-21.007812 21.007813c-1.910157-53.09375-27.699219-102.480469-70.171876-134.390625-42.476562-31.910156-97.089843-42.925781-148.613281-29.980469l7.808594 31.027344c11.542969-2.882813 23.394531-4.34375 35.292969-4.355469 76.746094.097656 139.933594 60.371094 143.648437 137.027344l-20.335937-20.335938-22.621094 22.621094 59.308594 59.3125 59.3125-59.3125zm0 0"/><path d="m219.3125 320.128906c-65.902344-.109375-123.335938-44.90625-139.488281-108.796875l16.175781 16.175781 22.625-22.625-59.3125-59.375-59.3125 59.3125 22.625 22.621094 23.152344-23.152344c8.984375 55.855469 44.304687 103.96875 94.902344 129.277344 50.59375 25.304688 110.277343 24.710938 160.359374-1.59375 4.03125-2.117187 6.980469-5.835937 8.117188-10.246094 1.136719-4.40625.355469-9.089843-2.148438-12.890624-4.394531-6.78125-13.210937-9.132813-20.398437-5.441407-20.722656 11.015625-43.832031 16.761719-67.296875 16.734375zm0 0"/></g></svg>