<svg height="512pt" viewBox="-6 0 512 512" width="512pt" xmlns="http://www.w3.org/2000/svg"><path d="m416 512h-416v-407.359375l122.078125-104.640625h293.921875zm0 0" fill="#e4edfb"/><path d="m473.375 496-164.6875-164.6875 22.625-22.625 164.6875 164.6875c6.246094 6.25 6.246094 16.378906 0 22.625s-16.375 6.246094-22.625 0zm0 0" fill="#57565c"/><path d="m0 104.640625h122.078125v-104.640625zm0 0" fill="#48c8ef"/><g fill="#fff"><path d="m64 416h32v32h-32zm0 0"/><path d="m128 416h32v32h-32zm0 0"/><path d="m192 416h32v32h-32zm0 0"/></g><path d="m368 248c0 66.273438-53.726562 120-120 120s-120-53.726562-120-120 53.726562-120 120-120 120 53.726562 120 120zm0 0" fill="#57565c"/><path d="m336 248c0 48.601562-39.398438 88-88 88s-88-39.398438-88-88 39.398438-88 88-88 88 39.398438 88 88zm0 0" fill="#48c8ef"/></svg>