<svg height="512pt" viewBox="0 0 512 512" width="512pt" xmlns="http://www.w3.org/2000/svg"><g fill="#48c8ef"><path d="m304 512c8.835938 0 16-7.164062 16-16v-176h176c8.835938 0 16-7.164062 16-16s-7.164062-16-16-16h-208v208c0 8.835938 7.164062 16 16 16zm0 0"/><path d="m16 320h176v176c0 8.835938 7.164062 16 16 16s16-7.164062 16-16v-208h-208c-8.835938 0-16 7.164062-16 16s7.164062 16 16 16zm0 0"/><path d="m320 192v-176c0-8.835938-7.164062-16-16-16s-16 7.164062-16 16v208h208c8.835938 0 16-7.164062 16-16s-7.164062-16-16-16zm0 0"/><path d="m192 192h-176c-8.835938 0-16 7.164062-16 16s7.164062 16 16 16h208v-208c0-8.835938-7.164062-16-16-16s-16 7.164062-16 16zm0 0"/></g><path d="m128 128h32v32h-32zm0 0" fill="#77959e"/><path d="m352 128h32v32h-32zm0 0" fill="#77959e"/><path d="m128 352h32v32h-32zm0 0" fill="#77959e"/><path d="m352 352h32v32h-32zm0 0" fill="#77959e"/></svg>