<svg height="512pt" viewBox="0 0 512 512" width="512pt" xmlns="http://www.w3.org/2000/svg"><g fill="#48c8ef"><path d="m16 192c-8.835938 0-16-7.164062-16-16v-176h176c8.835938 0 16 7.164062 16 16s-7.164062 16-16 16h-144v144c0 8.835938-7.164062 16-16 16zm0 0"/><path d="m496 192c-8.835938 0-16-7.164062-16-16v-144h-144c-8.835938 0-16-7.164062-16-16s7.164062-16 16-16h176v176c0 8.835938-7.164062 16-16 16zm0 0"/><path d="m176 512h-176v-176c0-8.835938 7.164062-16 16-16s16 7.164062 16 16v144h144c8.835938 0 16 7.164062 16 16s-7.164062 16-16 16zm0 0"/><path d="m512 512h-176c-8.835938 0-16-7.164062-16-16s7.164062-16 16-16h144v-144c0-8.835938 7.164062-16 16-16s16 7.164062 16 16zm0 0"/></g><path d="m336 272h-32v-32h32zm-64 0h-32v-32h32zm-64 0h-32v-32h32zm0 0" fill="#77959e"/></svg>