<svg height="510pt" viewBox="0 -6 510.55766 510" width="510pt" xmlns="http://www.w3.org/2000/svg"><path d="m216.402344 265.175781 67.882812-67.882812 226.273438 226.273437-67.882813 67.882813zm0 0" fill="#57565c"/><path d="m80.640625 219.941406 158.382813-158.402344 113.144531 113.128907-158.382813 158.402343zm0 0" fill="#e76e54"/><path d="m250.34375 4.980469c6.25-6.25 16.378906-6.25 22.628906 0l135.765625 135.765625c6.246094 6.246094 6.246094 16.378906 0 22.625-6.25 6.25-16.378906 6.25-22.628906 0l-135.765625-135.765625c-6.246094-6.246094-6.246094-16.378907 0-22.625zm0 0" fill="#57565c"/><path d="m24.074219 231.25c6.246093-6.25 16.378906-6.25 22.625 0l135.765625 135.761719c6.25 6.25 6.25 16.378906 0 22.628906s-16.378906 6.25-22.628906 0l-135.761719-135.765625c-6.25-6.246094-6.25-16.378906 0-22.625zm0 0" fill="#57565c"/><g fill="#77959e"><path d="m224 498.15625h-208c-8.835938 0-16-7.164062-16-16s7.164062-16 16-16h208zm0 0"/><path d="m256 466.15625h32v32h-32zm0 0"/><path d="m320 466.15625h32v32h-32zm0 0"/></g></svg>