<svg height="512pt" viewBox="0 0 512 512" width="512pt" xmlns="http://www.w3.org/2000/svg"><path d="m512 292.480469v-72.960938l-62-29.359375-10.273438-24.769531 23.089844-64.589844-51.617187-51.617187-64.625 23.105468-24.71875-10.257812-29.375-62.03125h-72.960938l-29.375 62.03125-24.71875 10.257812-64.625-23.105468-51.617187 51.617187 23.089844 64.625-10.273438 24.765625-62 29.328125v72.960938l62 29.359375 10.273438 24.769531-23.089844 64.589844 51.617187 51.617187 64.625-23.089844 24.765625 10.273438 29.328125 62h72.960938l29.359375-62 24.769531-10.273438 64.589844 23.089844 51.617187-51.617187-23.089844-64.625 10.273438-24.765625zm-256 59.519531c-53.019531 0-96-42.980469-96-96s42.980469-96 96-96 96 42.980469 96 96c-.054688 52.996094-43.003906 95.945312-96 96zm0 0" fill="#ffcb5a"/><path d="m240 240h32v32h-32zm0 0" fill="#77959e"/></svg>