<svg height="500pt" viewBox="0 -34 500.45668 500" width="500pt" xmlns="http://www.w3.org/2000/svg"><path d="m484.683594 216.21875c0 110.457031-89.542969 200-200 200-110.457032 0-200-89.542969-200-200s89.542968-200 200-200c110.457031 0 200 89.542969 200 200zm0 0" fill="#e4edfb"/><g fill="#e76e54"><path d="m115.546875 288.777344-29.40625 12.625c4.546875 10.597656 9.945313 20.804687 16.144531 30.527344l26.992188-17.152344c-5.265625-8.285156-9.855469-16.976563-13.730469-26zm0 0"/><path d="m301.484375.859375c-114.277344-8.75-215.507813 73.242187-230.6875 186.847656l-43.488281-43.488281c-6.246094-6.246094-16.375-6.246094-22.625 0-6.246094 6.25-6.246094 16.375 0 22.625l80 80 80-80c6.246094-6.25 6.246094-16.375 0-22.625-6.246094-6.246094-16.375-6.246094-22.621094 0l-38.179688 38.113281c14.613282-77.359375 76.878907-136.820312 154.832032-147.851562 77.949218-11.035157 154.269531 28.8125 189.777344 99.078125 35.503906 70.265625 22.3125 155.339844-32.808594 211.554687-55.121094 56.210938-139.921875 71.070313-210.871094 36.945313-7.417969-3.375-16.183594-.519532-20.191406 6.578125-2.246094 3.914062-2.753906 8.589843-1.394532 12.894531 1.359376 4.304688 4.457032 7.84375 8.546876 9.757812 78.246093 37.171876 171.132812 24 235.957031-33.460937 64.828125-57.460937 89.054687-148.09375 61.546875-230.234375-27.511719-82.144531-101.433594-139.90625-187.792969-146.734375zm0 0"/><path d="m147.085938 338.28125-24 21.25c7.640624 8.597656 15.941406 16.585938 24.832031 23.886719l20.285156-24.800781c-7.566406-6.207032-14.628906-13.007813-21.117187-20.335938zm0 0"/><path d="m318.285156 291.417969-57.601562-43.199219v-160c0-8.835938 7.164062-16 16-16 8.835937 0 16 7.164062 16 16v144l44.800781 33.601562c7.070313 5.300782 8.503906 15.328126 3.199219 22.398438-5.300782 7.070312-15.328125 8.503906-22.398438 3.199219zm0 0"/></g></svg>