<svg height="512pt" viewBox="0 -105 512.2624 512" width="512pt" xmlns="http://www.w3.org/2000/svg"><g fill="#ffcb5a"><path d="m421.171875 46.484375 42.589844-16.496094-11.566407-29.855469-99.3125 38.511719 38.480469 99.292969 29.839844-11.550781-20.382813-52.640625c46.5 11.394531 79.230469 53.039062 79.3125 100.914062 1.492188 24.859375-7.332031 49.234375-24.390624 67.378906-17.0625 18.144532-40.847657 28.453126-65.753907 28.492188l-255.839843-223.871094h-6.015626c-34.414062-1.59375-67.90625 11.378906-92.265624 35.738282-24.355469 24.355468-37.332032 57.847656-35.734376 92.261718 0 72.976563 58.460938 128 136 128v-32c-60.273437 0-104-40.367187-104-96-1.496093-24.863281 7.328126-49.238281 24.390626-67.382812 17.058593-18.144532 40.847656-28.453125 65.75-28.488282l255.839843 223.871094h6.019531c34.410157 1.59375 67.902344-11.378906 92.261719-35.738281s37.332031-57.851563 35.738281-92.261719c-.109374-57.679687-36.550781-109.035156-90.960937-128.175781zm0 0"/><path d="m176.132812 270.660156h32v32h-32zm0 0"/></g></svg>