<svg height="512pt" viewBox="0 -2 512 512" width="512pt" xmlns="http://www.w3.org/2000/svg"><path d="m448 508.878906-148.59375-92.878906h-267.40625c-17.671875 0-32-14.328125-32-32v-352c0-17.671875 14.328125-32 32-32h448c17.671875 0 32 14.328125 32 32v352c0 17.671875-14.328125 32-32 32h-32zm0 0" fill="#addb31"/><g fill="#fff"><path d="m144 224h160c8.835938 0 16 7.164062 16 16s-7.164062 16-16 16h-160c-8.835938 0-16-7.164062-16-16s7.164062-16 16-16zm0 0"/><path d="m144 160h224c8.835938 0 16 7.164062 16 16s-7.164062 16-16 16h-224c-8.835938 0-16-7.164062-16-16s7.164062-16 16-16zm0 0"/><path d="m144 96h288c8.835938 0 16 7.164062 16 16s-7.164062 16-16 16h-288c-8.835938 0-16-7.164062-16-16s7.164062-16 16-16zm0 0"/><path d="m64 96h32v32h-32zm0 0"/><path d="m64 160h32v32h-32zm0 0"/><path d="m64 224h32v32h-32zm0 0"/><path d="m144 288h96c8.835938 0 16 7.164062 16 16s-7.164062 16-16 16h-96c-8.835938 0-16-7.164062-16-16s7.164062-16 16-16zm0 0"/><path d="m64 288h32v32h-32zm0 0"/></g></svg>