<svg height="512pt" viewBox="0 -4 512 512" width="512pt" xmlns="http://www.w3.org/2000/svg"><path d="m228.6875 143.996094-116.6875-116.6875c-6.246094-6.246094-6.246094-16.375 0-22.625 6.246094-6.246094 16.375-6.246094 22.625 0l116.6875 116.6875zm0 0" fill="#e76e54"/><path d="m283.3125 143.996094-22.625-22.625 116.6875-116.6875c6.25-6.246094 16.378906-6.246094 22.625 0 6.246094 6.25 6.246094 16.378906 0 22.625zm0 0" fill="#e76e54"/><path d="m0 119.996094h512v384h-512zm0 0" fill="#d7e1f2"/><path d="m64 151.996094h384c17.671875 0 32 14.328125 32 32v256c0 17.671875-14.328125 32-32 32h-384c-17.671875 0-32-14.328125-32-32v-256c0-17.671875 14.328125-32 32-32zm0 0" fill="#e76e54"/><g fill="#fff"><path d="m160 417.882812v-211.773437l211.777344 105.886719zm0 0"/><path d="m64 247.996094h32v32h-32zm0 0"/><path d="m64 343.996094h32v32h-32zm0 0"/><path d="m416 247.996094h32v32h-32zm0 0"/><path d="m416 343.996094h32v32h-32zm0 0"/></g></svg>