<svg height="512pt" viewBox="0 0 512 511" width="512pt" xmlns="http://www.w3.org/2000/svg"><path d="m384 511.234375-181.039062-126.734375h-202.960938v-384h512v384h-128zm0 0" fill="#48c8ef"/><path d="m397.488281 320.5h-234.976562l117.488281-180.703125zm0 0" fill="#6fbb2e"/><path d="m448 128.5c0 35.347656-28.652344 64-64 64s-64-28.652344-64-64 28.652344-64 64-64 64 28.652344 64 64zm0 0" fill="#ffcb5a"/><path d="m313.953125 320.5h-243.90625l121.953125-242.464844zm0 0" fill="#addb31"/><path d="m80 288.5h352c8.835938 0 16 7.164062 16 16s-7.164062 16-16 16h-352c-8.835938 0-16-7.164062-16-16s7.164062-16 16-16zm0 0" fill="#24b2d3"/></svg>